<?xml version="1.0" encoding="UTF-8"?>
<svg id="Layer_1" xmlns="http://www.w3.org/2000/svg" version="1.1" viewBox="0 0 314.31 56.9">
  <!-- Generator: Adobe Illustrator 30.0.0, SVG Export Plug-In . SVG Version: 2.1.1 Build 123)  -->
  <g>
    <path d="M263.9,12.29c-.12,0-.24.04-.34.13-.2.19-.22.51-.04.71,6.79,7.65,11.05,12.16,12.32,13.05.92.69,2.09,1.06,3.29,1.06s2.37-.38,3.28-1.06c1.27-.9,5.53-5.41,12.32-13.06.18-.21.16-.53-.04-.71-.2-.17-.49-.17-.68.01-5.49,5.18-12.23,11.5-13.18,12.19-.48.36-1.07.55-1.71.55s-1.23-.19-1.71-.55c-.94-.69-7.68-7.01-13.17-12.19-.1-.09-.22-.14-.35-.14"/>
    <path d="M279.12,31.73c.64,0,1.23.19,1.71.55.75.55,5.19,4.65,13.17,12.19.19.18.49.18.69,0,.2-.19.23-.5.04-.71-6.79-7.65-11.05-12.16-12.32-13.06-.92-.69-2.09-1.06-3.29-1.06s-2.37.37-3.28,1.06c-1.27.9-5.53,5.41-12.33,13.06-.18.21-.16.52.04.71.2.17.49.17.68,0,7.99-7.54,12.42-11.64,13.18-12.19.48-.36,1.07-.55,1.71-.55"/>
  </g>
  <path d="M40.43,21.72c-1.74-2.54-4.54-3.82-8.39-3.82-3.3,0-5.93.93-7.89,2.8-1.96,1.86-2.94,4.38-2.94,7.55s.93,5.63,2.79,7.49c1.86,1.86,4.41,2.79,7.67,2.79,3.69,0,6.51-1.3,8.46-3.89l1.51.97c-2.32,3-5.63,4.5-9.94,4.5-3.76,0-6.74-1.05-8.94-3.16-2.2-2.11-3.3-4.97-3.3-8.56s1.13-6.65,3.39-8.82c2.26-2.17,5.33-3.25,9.2-3.25,4.47,0,7.76,1.49,9.87,4.47l-1.48.93Z"/>
  <polygon points="48.16 39.88 48.16 16.56 65.91 16.56 65.91 18.14 49.92 18.14 49.92 26.95 64.09 26.95 64.09 28.53 49.92 28.53 49.92 38.29 66.08 38.29 66.08 39.88 48.16 39.88"/>
  <polygon points="71.34 39.88 71.34 16.56 73.09 16.56 73.09 38.29 87.81 38.29 87.81 39.88 71.34 39.88"/>
  <polygon points="92.49 39.88 92.49 16.56 94.24 16.56 94.24 38.29 108.96 38.29 108.96 39.88 92.49 39.88"/>
  <path d="M124.09,29.7h-8.7v10.18h-1.75v-23.32h10.83c5.66,0,8.5,2.23,8.5,6.67,0,2.25-.96,3.93-2.89,5.05-1.58.94-3.58,1.41-5.99,1.41M124.7,18.14h-9.31v9.97h9.34c1.77,0,3.25-.39,4.45-1.18,1.35-.88,2.04-2.11,2.04-3.71,0-3.39-2.17-5.09-6.51-5.09"/>
  <polygon points="190.84 39.88 189.38 39.87 183.92 27.37 178.6 39.89 177.09 39.88 166.91 16.56 168.75 16.56 177.83 37.37 182.95 25.15 179.2 16.56 181.04 16.56 190.12 37.36 198.88 16.56 200.71 16.56 190.84 39.88"/>
  <polygon points="205.73 39.88 205.73 16.56 223.48 16.56 223.48 18.14 207.48 18.14 207.48 26.95 221.65 26.95 221.65 28.53 207.48 28.53 207.48 38.29 223.65 38.29 223.65 39.88 205.73 39.88"/>
  <path d="M244.38,28.49c2.41.94,3.61,2.76,3.61,5.47v5.91h-1.75v-5.85c0-3.05-2.13-4.57-6.4-4.57h-9.18v10.42h-1.76v-23.32h11.25c5.45,0,8.18,2.04,8.18,6.12,0,2.84-1.32,4.78-3.95,5.81M240.22,18.14h-9.56v9.63h9.01c1.97,0,3.55-.37,4.75-1.1,1.44-.88,2.17-2.18,2.17-3.9,0-3.08-2.12-4.62-6.36-4.62"/>
  <path d="M165.52,27.93l-1.12.02c-.14-7.24-6.21-13.09-13.66-13.09s-13.68,5.99-13.68,13.35,6.14,13.35,13.68,13.35,13.09-5.44,13.62-12.33l1.16.02v-1.31ZM150.73,40.05c-6.71,0-12.18-5.32-12.18-11.85s5.47-11.85,12.18-11.85,12.04,5.2,12.17,11.62l-20.31.36v.5l20.27.36c-.52,6.07-5.76,10.86-12.13,10.86Z"/>
</svg>