<?xml version="1.0" encoding="UTF-8"?>
<svg id="Layer_1" xmlns="http://www.w3.org/2000/svg" version="1.1" viewBox="0 0 550 140">
  <!-- Generator: Adobe Illustrator 30.2.1, SVG Export Plug-In . SVG Version: 2.1.1 Build 1)  -->
  <defs>
    <style>
      .st0 {
        font-family: WalkwayBold, 'Walkway Bold';
        font-size: 15.25px;
        letter-spacing: .05em;
      }

      .st0, .st1 {
        fill: #4d4d4d;
      }
    </style>
  </defs>
  <text class="st0" transform="translate(65.59 4834.75)"><tspan x="0" y="0">Wellness Center</tspan></text>
  <g>
    <g>
      <path class="st1" d="M191.1,4799.66c-.07,0-.14.02-.2.08-.12.11-.13.29-.02.41,3.94,4.43,6.41,7.05,7.14,7.57.53.4,1.21.62,1.91.62s1.37-.22,1.9-.61c.74-.52,3.21-3.14,7.15-7.57.11-.12.1-.31-.02-.41h0c-.11-.1-.29-.1-.4,0-3.18,3-7.09,6.67-7.64,7.07-.28.21-.62.32-.99.32-.37,0-.71-.11-.99-.32-.55-.4-4.46-4.06-7.64-7.07-.06-.05-.13-.08-.2-.08Z"/>
      <path class="st1" d="M199.92,4810.93c.37,0,.71.11.99.32.44.32,3.01,2.7,7.64,7.07.11.1.28.11.4,0,.12-.11.13-.29.02-.41-3.94-4.43-6.41-7.05-7.14-7.57-.53-.4-1.21-.62-1.91-.62s-1.37.22-1.9.61c-.74.52-3.21,3.14-7.15,7.57-.11.12-.1.31.02.41h0c.11.1.28.1.4,0,4.63-4.37,7.2-6.75,7.64-7.07.28-.21.62-.32.99-.32Z"/>
    </g>
    <path class="st1" d="M52.71,4804.86c-1.08-1.58-2.81-2.36-5.2-2.36-2.04,0-3.67.58-4.89,1.73-1.21,1.15-1.82,2.71-1.82,4.68s.57,3.48,1.72,4.64c1.15,1.15,2.73,1.73,4.75,1.73,2.29,0,4.03-.8,5.24-2.41l.94.6c-1.43,1.86-3.49,2.79-6.15,2.79-2.33,0-4.17-.65-5.54-1.96-1.36-1.31-2.04-3.07-2.04-5.3s.7-4.12,2.1-5.46c1.4-1.34,3.3-2.01,5.7-2.01,2.77,0,4.81.92,6.11,2.77l-.92.58Z"/>
    <path class="st1" d="M57.51,4816.1v-14.44h10.99v.98h-9.9v5.45h8.77v.98h-8.77v6.05h10.01v.98h-11.09Z"/>
    <path class="st1" d="M71.86,4816.1v-14.44h1.09v13.46h9.11v.98h-10.2Z"/>
    <path class="st1" d="M84.95,4816.1v-14.44h1.09v13.46h9.11v.98h-10.2Z"/>
    <path class="st1" d="M104.52,4809.8h-5.39v6.3h-1.09v-14.44h6.71c3.51,0,5.26,1.38,5.26,4.13,0,1.39-.6,2.43-1.79,3.13-.98.58-2.21.87-3.71.87ZM104.9,4802.64h-5.76v6.18h5.78c1.1,0,2.01-.24,2.75-.73.84-.54,1.26-1.31,1.26-2.29,0-2.1-1.34-3.15-4.03-3.15Z"/>
    <path class="st1" d="M145.86,4816.1h-.91s-3.38-7.74-3.38-7.74l-3.3,7.75h-.94s-6.3-14.45-6.3-14.45h1.14l5.62,12.88,3.17-7.56-2.32-5.32h1.14l5.62,12.88,5.43-12.88h1.13l-6.11,14.44Z"/>
    <path class="st1" d="M155.08,4816.1v-14.44h10.99v.98h-9.9v5.45h8.77v.98h-8.77v6.05h10.01v.98h-11.09Z"/>
    <path class="st1" d="M179.01,4809.05c1.49.58,2.24,1.71,2.24,3.39v3.66h-1.09v-3.62c0-1.89-1.32-2.83-3.96-2.83h-5.69v6.45h-1.09v-14.44h6.96c3.38,0,5.07,1.26,5.07,3.79,0,1.76-.82,2.96-2.45,3.6ZM176.44,4802.64h-5.92v5.96h5.58c1.22,0,2.2-.23,2.94-.68.89-.54,1.34-1.35,1.34-2.41,0-1.91-1.31-2.86-3.94-2.86Z"/>
    <g>
      <path class="st1" d="M121.02,4817.14c-4.67,0-8.47-3.71-8.47-8.27s3.8-8.27,8.47-8.27,8.47,3.71,8.47,8.27-3.8,8.27-8.47,8.27ZM121.02,4801.53c-4.16,0-7.54,3.29-7.54,7.34s3.38,7.34,7.54,7.34,7.54-3.29,7.54-7.34-3.38-7.34-7.54-7.34Z"/>
      <polygon class="st1" points="130.17 4809.51 115.98 4809.27 115.98 4808.95 130.17 4808.7 130.17 4809.51"/>
    </g>
  </g>
  <g>
    <g>
      <path class="st1" d="M126.3,119.82h-2.02l-7.47-17.09-7.28,17.09h-2.02l-13.9-31.84h2.54l12.4,28.36,6.95-16.58-5.12-11.79h2.54l12.4,28.41,11.98-28.41h2.49l-13.48,31.84Z"/>
      <path class="st1" d="M144.71,109.21c.31,5.95,3.46,8.92,9.44,8.92,4.54,0,7.53-1.86,8.97-5.59h2.44c-.91,2.94-2.46,5.01-4.65,6.2-1.91,1.06-4.2,1.6-6.86,1.6-3.85,0-6.79-1.11-8.83-3.33-1.91-2.07-2.86-4.93-2.86-8.59s1.09-6.51,3.26-8.74c2.18-2.22,5.06-3.33,8.66-3.33s6.48,1.01,8.64,3.03,3.24,4.74,3.24,8.15v1.64l-21.46.05ZM154.29,98.55c-2.66,0-4.85.75-6.55,2.25-1.71,1.5-2.7,3.57-2.98,6.2h18.78c-.16-2.63-1.07-4.7-2.75-6.2-1.68-1.5-3.84-2.25-6.5-2.25Z"/>
      <path class="st1" d="M170.86,119.82v-31.84h2.4v31.84h-2.4Z"/>
      <path class="st1" d="M179.6,119.82v-31.84h2.4v31.84h-2.4Z"/>
      <path class="st1" d="M206.46,119.82v-14.98c0-2.04-.66-3.62-1.97-4.74-1.28-1.03-3.04-1.55-5.26-1.55-2.63,0-4.7.78-6.22,2.33-1.52,1.55-2.28,3.58-2.28,6.08v12.87h-2.4v-22.96h2.4v3.15c1.81-2.44,4.63-3.66,8.45-3.66,2.79,0,5.06.66,6.81,1.97,1.91,1.44,2.86,3.47,2.86,6.1v15.4h-2.4Z"/>
      <path class="st1" d="M216.18,109.21c.31,5.95,3.46,8.92,9.44,8.92,4.54,0,7.53-1.86,8.97-5.59h2.44c-.91,2.94-2.46,5.01-4.65,6.2-1.91,1.06-4.2,1.6-6.86,1.6-3.85,0-6.79-1.11-8.83-3.33-1.91-2.07-2.86-4.93-2.86-8.59s1.09-6.51,3.26-8.74c2.18-2.22,5.06-3.33,8.66-3.33s6.48,1.01,8.64,3.03,3.24,4.74,3.24,8.15v1.64l-21.46.05ZM225.76,98.55c-2.66,0-4.85.75-6.55,2.25-1.71,1.5-2.7,3.57-2.98,6.2h18.78c-.16-2.63-1.07-4.7-2.75-6.2-1.68-1.5-3.84-2.25-6.5-2.25Z"/>
      <path class="st1" d="M252.01,120.43c-6.98,0-10.47-3.13-10.47-9.39h2.49c0,2.47.64,4.27,1.93,5.4,1.28,1.13,3.32,1.69,6.1,1.69,1.88,0,3.43-.3,4.65-.89,1.5-.78,2.25-1.94,2.25-3.47,0-1.88-1.57-3.18-4.7-3.9-.22-.06-1.78-.31-4.7-.75-4.7-.72-7.04-2.75-7.04-6.1,0-2.19.94-3.9,2.82-5.12,1.6-1.06,3.55-1.6,5.87-1.6,6.73,0,10.1,2.79,10.1,8.36h-2.54c0-2.13-.58-3.67-1.74-4.63-1.16-.96-3.02-1.43-5.59-1.43-1.72,0-3.18.34-4.37,1.03-1.38.81-2.07,1.94-2.07,3.38,0,1.88,1.53,3.08,4.6,3.62.81.16,2.47.45,4.98.89,4.57.78,6.86,2.86,6.86,6.25,0,2.38-1.03,4.15-3.1,5.31-1.66.91-3.77,1.36-6.34,1.36Z"/>
      <path class="st1" d="M277.18,120.43c-6.98,0-10.47-3.13-10.47-9.39h2.49c0,2.47.64,4.27,1.93,5.4,1.28,1.13,3.32,1.69,6.1,1.69,1.88,0,3.43-.3,4.65-.89,1.5-.78,2.25-1.94,2.25-3.47,0-1.88-1.57-3.18-4.7-3.9-.22-.06-1.78-.31-4.7-.75-4.7-.72-7.04-2.75-7.04-6.1,0-2.19.94-3.9,2.82-5.12,1.6-1.06,3.55-1.6,5.87-1.6,6.73,0,10.1,2.79,10.1,8.36h-2.54c0-2.13-.58-3.67-1.74-4.63s-3.02-1.43-5.59-1.43c-1.72,0-3.18.34-4.37,1.03-1.38.81-2.07,1.94-2.07,3.38,0,1.88,1.53,3.08,4.6,3.62.81.16,2.47.45,4.98.89,4.57.78,6.86,2.86,6.86,6.25,0,2.38-1.03,4.15-3.1,5.31-1.66.91-3.77,1.36-6.34,1.36Z"/>
      <path class="st1" d="M339.97,95.03c-2.38-3.44-6.2-5.17-11.46-5.17-4.51,0-8.1,1.27-10.78,3.8s-4.01,5.96-4.01,10.28,1.28,7.66,3.83,10.19c2.55,2.54,6.03,3.8,10.45,3.8,5.04,0,8.89-1.75,11.55-5.26l2.07,1.31c-3.16,4.1-7.69,6.15-13.57,6.15-5.13,0-9.2-1.44-12.21-4.32-3.01-2.88-4.51-6.78-4.51-11.69s1.55-9.05,4.65-12.02c3.1-2.97,7.28-4.46,12.54-4.46,6.11,0,10.6,2.04,13.48,6.1l-2.02,1.27Z"/>
      <path class="st1" d="M348.61,109.21c.31,5.95,3.46,8.92,9.44,8.92,4.54,0,7.53-1.86,8.97-5.59h2.44c-.91,2.94-2.46,5.01-4.65,6.2-1.91,1.06-4.2,1.6-6.86,1.6-3.85,0-6.79-1.11-8.83-3.33-1.91-2.07-2.86-4.93-2.86-8.59s1.09-6.51,3.26-8.74c2.18-2.22,5.06-3.33,8.66-3.33s6.48,1.01,8.64,3.03c2.16,2.02,3.24,4.74,3.24,8.15v1.64l-21.46.05ZM358.19,98.55c-2.66,0-4.84.75-6.55,2.25-1.71,1.5-2.7,3.57-2.98,6.2h18.79c-.16-2.63-1.07-4.7-2.75-6.2-1.67-1.5-3.84-2.25-6.5-2.25Z"/>
      <path class="st1" d="M392.89,119.82v-14.98c0-2.04-.66-3.62-1.97-4.74-1.28-1.03-3.04-1.55-5.26-1.55-2.63,0-4.7.78-6.22,2.33-1.52,1.55-2.28,3.58-2.28,6.08v12.87h-2.39v-22.96h2.39v3.15c1.82-2.44,4.63-3.66,8.45-3.66,2.79,0,5.06.66,6.81,1.97,1.91,1.44,2.86,3.47,2.86,6.1v15.4h-2.39Z"/>
      <path class="st1" d="M407.07,100.1v19.72h-2.3l-.09-19.72h-4.65v-2.21h4.65v-6.9h2.4v6.9h4.74v2.21h-4.74Z"/>
      <path class="st1" d="M417.31,109.21c.31,5.95,3.46,8.92,9.44,8.92,4.54,0,7.53-1.86,8.97-5.59h2.44c-.91,2.94-2.46,5.01-4.65,6.2-1.91,1.06-4.2,1.6-6.86,1.6-3.85,0-6.79-1.11-8.83-3.33-1.91-2.07-2.86-4.93-2.86-8.59s1.09-6.51,3.26-8.74c2.18-2.22,5.06-3.33,8.66-3.33s6.48,1.01,8.64,3.03c2.16,2.02,3.24,4.74,3.24,8.15v1.64l-21.46.05ZM426.89,98.55c-2.66,0-4.84.75-6.55,2.25-1.71,1.5-2.7,3.57-2.98,6.2h18.79c-.16-2.63-1.07-4.7-2.75-6.2-1.67-1.5-3.84-2.25-6.5-2.25Z"/>
      <path class="st1" d="M447.93,102.31c-1.38,2.16-2.07,4.93-2.07,8.31v9.2h-2.39v-22.96h2.39v3.9c.47-.69,1.06-1.33,1.79-1.92,2.07-1.66,4.8-2.49,8.22-2.49v2.21c-3.66,0-6.31,1.25-7.94,3.76Z"/>
    </g>
    <g>
      <g>
        <path class="st1" d="M480.41,11.77c-.21,0-.43.08-.6.23-.37.33-.4.9-.07,1.27,12.13,13.65,19.74,21.71,21.99,23.31,1.64,1.22,3.72,1.9,5.87,1.9s4.23-.67,5.86-1.89c2.27-1.6,9.87-9.66,22-23.31.33-.37.3-.94-.07-1.27h0c-.35-.32-.88-.31-1.22.01-9.8,9.24-21.83,20.52-23.52,21.76-.86.64-1.91.98-3.05.99-1.14,0-2.2-.34-3.05-.99-1.68-1.24-13.72-12.52-23.52-21.76-.17-.16-.4-.25-.62-.25Z"/>
        <path class="st1" d="M507.6,46.46c1.14,0,2.2.35,3.05.99,1.34.99,9.26,8.31,23.52,21.76.34.32.87.33,1.22.01.37-.33.4-.9.07-1.27-12.13-13.65-19.74-21.71-21.99-23.31-1.64-1.22-3.72-1.9-5.87-1.9s-4.23.67-5.86,1.89c-2.27,1.6-9.87,9.66-22,23.31-.33.37-.3.94.07,1.27h0c.35.32.88.31,1.22-.01,14.26-13.45,22.17-20.77,23.52-21.76.85-.64,1.91-.98,3.05-.99Z"/>
      </g>
      <path class="st1" d="M54.31,27.78c-3.32-4.85-8.66-7.28-16-7.28-6.3,0-11.31,1.78-15.05,5.33-3.74,3.55-5.61,8.35-5.61,14.41s1.77,10.72,5.31,14.28c3.54,3.55,8.41,5.33,14.62,5.33,7.04,0,12.41-2.47,16.13-7.41l2.89,1.84c-4.42,5.73-10.73,8.59-18.95,8.59-7.17,0-12.85-2.01-17.05-6.03-4.2-4.02-6.3-9.46-6.3-16.33s2.15-12.69,6.46-16.82c4.31-4.13,10.15-6.2,17.54-6.2,8.52,0,14.8,2.84,18.82,8.52l-2.82,1.77Z"/>
      <path class="st1" d="M69.06,62.4V17.95h33.83v3.02h-30.49v16.79h27.01v3.02h-27.01v18.62h30.82v3.02h-34.16Z"/>
      <path class="st1" d="M113.26,62.4V17.95h3.34v41.44h28.06v3.02h-31.41Z"/>
      <path class="st1" d="M153.58,62.4V17.95h3.34v41.44h28.06v3.02h-31.41Z"/>
      <path class="st1" d="M213.84,42.99h-16.59v19.41h-3.34V17.95h20.65c10.8,0,16.2,4.24,16.2,12.72,0,4.28-1.84,7.5-5.51,9.64-3.02,1.79-6.82,2.69-11.41,2.69ZM215,20.96h-17.74v19.02h17.81c3.37,0,6.2-.75,8.48-2.25,2.58-1.67,3.88-4.03,3.88-7.07,0-6.47-4.14-9.71-12.42-9.71Z"/>
      <path class="st1" d="M341.11,62.4h-2.8s-10.4-23.84-10.4-23.84l-10.15,23.87-2.88-.03-19.41-44.46h3.51l17.32,39.67,9.76-23.29-7.15-16.38h3.51l17.3,39.65,16.71-39.65h3.49l-18.82,44.46Z"/>
      <path class="st1" d="M369.5,62.4V17.95h33.83v3.02h-30.49v16.79h27.02v3.02h-27.02v18.62h30.82v3.02h-34.16Z"/>
      <path class="st1" d="M443.21,40.7c4.59,1.79,6.88,5.27,6.88,10.43v11.28h-3.34v-11.15c0-5.81-4.07-8.72-12.2-8.72h-17.51v19.87h-3.34V17.95h21.44c10.4,0,15.61,3.89,15.61,11.67,0,5.42-2.51,9.11-7.54,11.08ZM435.27,20.96h-18.23v18.36h17.18c3.76,0,6.78-.7,9.05-2.11,2.76-1.67,4.13-4.14,4.13-7.44,0-5.88-4.04-8.82-12.13-8.82Z"/>
      <g>
        <path class="st1" d="M264.64,65.58c-14.38,0-26.08-11.42-26.08-25.45s11.7-25.45,26.08-25.45,26.08,11.42,26.08,25.45-11.7,25.45-26.08,25.45ZM264.64,17.54c-12.8,0-23.22,10.13-23.22,22.59s10.42,22.59,23.22,22.59,23.22-10.14,23.22-22.59-10.42-22.59-23.22-22.59Z"/>
        <polygon class="st1" points="292.82 42.11 249.11 41.35 249.11 40.38 292.82 39.62 292.82 42.11"/>
      </g>
    </g>
  </g>
</svg>