<?xml version="1.0" encoding="UTF-8"?>
<svg id="Layer_1" xmlns="http://www.w3.org/2000/svg" version="1.1" viewBox="0 0 870 60">
  <!-- Generator: Adobe Illustrator 30.2.1, SVG Export Plug-In . SVG Version: 2.1.1 Build 1)  -->
  <defs>
    <style>
      .st0 {
        fill: #4d4d4d;
      }
    </style>
  </defs>
  <g>
    <path class="st0" d="M488.06,47.62h-2.28l-8.41-19.26-8.2,19.26h-2.28l-15.66-35.87h2.86l13.97,31.96,7.83-18.68-5.77-13.28h2.86l13.97,32.01,13.49-32.01h2.81l-15.19,35.87Z"/>
    <path class="st0" d="M508.8,35.66c.35,6.7,3.9,10.05,10.64,10.05,5.11,0,8.48-2.1,10.11-6.3h2.75c-1.02,3.32-2.77,5.64-5.24,6.98-2.15,1.2-4.73,1.8-7.73,1.8-4.34,0-7.66-1.25-9.95-3.76-2.15-2.33-3.23-5.56-3.23-9.68s1.23-7.34,3.68-9.84c2.45-2.5,5.7-3.76,9.76-3.76s7.3,1.14,9.74,3.41c2.43,2.28,3.65,5.34,3.65,9.18v1.85l-24.18.05ZM519.6,23.65c-3,0-5.46.85-7.38,2.54-1.92,1.69-3.04,4.02-3.36,6.98h21.16c-.18-2.96-1.21-5.29-3.1-6.98s-4.33-2.54-7.33-2.54Z"/>
    <path class="st0" d="M538.28,47.62V11.75h2.7v35.87h-2.7Z"/>
    <path class="st0" d="M548.11,47.62V11.75h2.7v35.87h-2.7Z"/>
    <path class="st0" d="M578.38,47.62v-16.88c0-2.29-.74-4.07-2.22-5.35-1.44-1.16-3.42-1.74-5.92-1.74-2.96,0-5.3.87-7.01,2.62-1.71,1.74-2.57,4.03-2.57,6.85v14.5h-2.7v-25.87h2.7v3.55c2.05-2.75,5.22-4.13,9.52-4.13,3.14,0,5.7.74,7.67,2.22,2.15,1.62,3.23,3.92,3.23,6.88v17.36h-2.7Z"/>
    <path class="st0" d="M589.33,35.66c.35,6.7,3.9,10.05,10.64,10.05,5.11,0,8.48-2.1,10.11-6.3h2.75c-1.03,3.32-2.77,5.64-5.24,6.98-2.15,1.2-4.73,1.8-7.73,1.8-4.34,0-7.65-1.25-9.95-3.76-2.15-2.33-3.23-5.56-3.23-9.68s1.22-7.34,3.68-9.84c2.45-2.5,5.7-3.76,9.76-3.76s7.3,1.14,9.73,3.41c2.43,2.28,3.65,5.34,3.65,9.18v1.85l-24.18.05ZM600.13,23.65c-3,0-5.46.85-7.38,2.54-1.92,1.69-3.04,4.02-3.36,6.98h21.16c-.18-2.96-1.21-5.29-3.09-6.98-1.89-1.69-4.33-2.54-7.33-2.54Z"/>
    <path class="st0" d="M629.7,48.31c-7.87,0-11.8-3.53-11.8-10.58h2.8c0,2.79.72,4.82,2.17,6.08s3.74,1.9,6.88,1.9c2.12,0,3.86-.33,5.24-1.01,1.69-.88,2.54-2.19,2.54-3.92,0-2.12-1.76-3.58-5.29-4.39-.25-.07-2.01-.35-5.29-.85-5.29-.81-7.94-3.1-7.94-6.88,0-2.47,1.06-4.39,3.17-5.77,1.8-1.2,4-1.8,6.62-1.8,7.58,0,11.37,3.14,11.37,9.42h-2.86c0-2.4-.65-4.13-1.96-5.21s-3.4-1.61-6.3-1.61c-1.94,0-3.58.39-4.92,1.16-1.55.92-2.33,2.19-2.33,3.81,0,2.12,1.73,3.47,5.18,4.07.92.18,2.79.51,5.61,1.01,5.15.88,7.73,3.23,7.73,7.04,0,2.68-1.17,4.67-3.49,5.98-1.87,1.02-4.25,1.53-7.14,1.53Z"/>
    <path class="st0" d="M658.06,48.31c-7.87,0-11.8-3.53-11.8-10.58h2.8c0,2.79.72,4.82,2.17,6.08s3.74,1.9,6.88,1.9c2.12,0,3.86-.33,5.24-1.01,1.69-.88,2.54-2.19,2.54-3.92,0-2.12-1.76-3.58-5.29-4.39-.25-.07-2.01-.35-5.29-.85-5.29-.81-7.94-3.1-7.94-6.88,0-2.47,1.06-4.39,3.17-5.77,1.8-1.2,4-1.8,6.61-1.8,7.58,0,11.38,3.14,11.38,9.42h-2.86c0-2.4-.65-4.13-1.96-5.21s-3.4-1.61-6.3-1.61c-1.94,0-3.58.39-4.92,1.16-1.55.92-2.33,2.19-2.33,3.81,0,2.12,1.73,3.47,5.19,4.07.92.18,2.79.51,5.61,1.01,5.15.88,7.72,3.23,7.72,7.04,0,2.68-1.16,4.67-3.49,5.98-1.87,1.02-4.25,1.53-7.14,1.53Z"/>
    <path class="st0" d="M728.8,19.68c-2.68-3.88-6.98-5.82-12.91-5.82-5.08,0-9.13,1.43-12.14,4.28-3.02,2.86-4.52,6.72-4.52,11.59s1.44,8.62,4.31,11.48,6.8,4.29,11.77,4.29c5.68,0,10.02-1.97,13.02-5.93l2.33,1.48c-3.56,4.62-8.66,6.93-15.29,6.93-5.78,0-10.37-1.62-13.75-4.87-3.39-3.24-5.08-7.64-5.08-13.18s1.75-10.19,5.24-13.54c3.49-3.35,8.2-5.03,14.13-5.03,6.88,0,11.94,2.29,15.18,6.88l-2.28,1.43Z"/>
    <path class="st0" d="M738.54,35.66c.35,6.7,3.9,10.05,10.63,10.05,5.12,0,8.48-2.1,10.11-6.3h2.75c-1.02,3.32-2.77,5.64-5.24,6.98-2.15,1.2-4.73,1.8-7.72,1.8-4.34,0-7.66-1.25-9.95-3.76-2.15-2.33-3.23-5.56-3.23-9.68s1.23-7.34,3.68-9.84c2.45-2.5,5.7-3.76,9.76-3.76s7.3,1.14,9.74,3.41c2.43,2.28,3.65,5.34,3.65,9.18v1.85l-24.18.05ZM749.33,23.65c-3,0-5.46.85-7.38,2.54-1.92,1.69-3.04,4.02-3.36,6.98h21.16c-.18-2.96-1.21-5.29-3.09-6.98-1.89-1.69-4.33-2.54-7.33-2.54Z"/>
    <path class="st0" d="M788.43,47.62v-16.88c0-2.29-.74-4.07-2.22-5.35-1.44-1.16-3.42-1.74-5.92-1.74-2.96,0-5.3.87-7.01,2.62-1.71,1.74-2.57,4.03-2.57,6.85v14.5h-2.7v-25.87h2.7v3.55c2.05-2.75,5.22-4.13,9.52-4.13,3.14,0,5.7.74,7.67,2.22,2.15,1.62,3.23,3.92,3.23,6.88v17.36h-2.7Z"/>
    <path class="st0" d="M804.41,25.4v22.22h-2.59l-.11-22.22h-5.24v-2.49h5.24v-7.78h2.7v7.78h5.34v2.49h-5.34Z"/>
    <path class="st0" d="M815.95,35.66c.35,6.7,3.9,10.05,10.64,10.05,5.11,0,8.48-2.1,10.11-6.3h2.75c-1.03,3.32-2.77,5.64-5.24,6.98-2.15,1.2-4.73,1.8-7.73,1.8-4.34,0-7.65-1.25-9.95-3.76-2.15-2.33-3.23-5.56-3.23-9.68s1.22-7.34,3.68-9.84c2.45-2.5,5.7-3.76,9.76-3.76s7.3,1.14,9.73,3.41c2.43,2.28,3.65,5.34,3.65,9.18v1.85l-24.18.05ZM826.74,23.65c-3,0-5.46.85-7.38,2.54-1.92,1.69-3.04,4.02-3.36,6.98h21.16c-.18-2.96-1.21-5.29-3.09-6.98-1.89-1.69-4.33-2.54-7.33-2.54Z"/>
    <path class="st0" d="M850.44,27.88c-1.55,2.43-2.33,5.55-2.33,9.36v10.37h-2.7v-25.87h2.7v4.39c.53-.78,1.2-1.5,2.01-2.17,2.33-1.87,5.41-2.8,9.26-2.8v2.49c-4.13,0-7.11,1.41-8.94,4.23Z"/>
  </g>
  <g>
    <g>
      <path class="st0" d="M386.23,6.76c-.17,0-.35.06-.49.19-.3.27-.32.73-.06,1.02,9.78,11,15.9,17.5,17.72,18.78,1.32.99,3,1.53,4.73,1.53s3.41-.54,4.72-1.52c1.83-1.29,7.95-7.78,17.73-18.79.26-.3.24-.76-.06-1.02h0c-.28-.26-.71-.25-.98.01-7.9,7.45-17.59,16.54-18.95,17.54-.69.52-1.54.79-2.46.79-.92,0-1.77-.28-2.46-.79-1.36-1-11.05-10.09-18.95-17.54-.14-.13-.32-.2-.5-.2Z"/>
      <path class="st0" d="M408.14,34.71c.92,0,1.77.28,2.46.8,1.08.79,7.46,6.7,18.95,17.54.28.26.7.26.98.01.3-.27.32-.73.06-1.02-9.78-11-15.9-17.5-17.72-18.78-1.32-.99-3-1.53-4.73-1.53s-3.41.54-4.72,1.52c-1.83,1.29-7.95,7.78-17.73,18.79-.27.3-.24.76.06,1.02h0c.28.25.71.25.98-.01,11.49-10.84,17.87-16.74,18.95-17.54.69-.52,1.54-.79,2.46-.79Z"/>
    </g>
    <path class="st0" d="M42.85,19.66c-2.68-3.91-6.98-5.87-12.89-5.87-5.07,0-9.12,1.43-12.13,4.3-3.01,2.86-4.52,6.73-4.52,11.61s1.43,8.64,4.28,11.51c2.85,2.86,6.78,4.29,11.78,4.29,5.67,0,10-1.99,13-5.97l2.33,1.48c-3.56,4.62-8.65,6.92-15.27,6.92-5.78,0-10.36-1.62-13.74-4.86-3.38-3.24-5.07-7.63-5.07-13.16s1.73-10.22,5.21-13.55c3.47-3.33,8.18-4.99,14.14-4.99,6.87,0,11.92,2.29,15.17,6.87l-2.27,1.43Z"/>
    <path class="st0" d="M54.74,47.56V11.73h27.27v2.43h-24.57v13.53h21.77v2.43h-21.77v15.01h24.84v2.43h-27.53Z"/>
    <path class="st0" d="M90.35,47.56V11.73h2.69v33.4h22.62v2.43h-25.31Z"/>
    <path class="st0" d="M122.85,47.56V11.73h2.69v33.4h22.62v2.43h-25.31Z"/>
    <path class="st0" d="M171.41,31.92h-13.37v15.64h-2.69V11.73h16.64c8.7,0,13.05,3.42,13.05,10.25,0,3.45-1.48,6.04-4.44,7.77-2.43,1.44-5.5,2.17-9.19,2.17ZM172.34,14.16h-14.3v15.32h14.35c2.72,0,4.99-.6,6.83-1.81,2.08-1.35,3.12-3.25,3.12-5.69,0-5.21-3.34-7.82-10.01-7.82Z"/>
    <path class="st0" d="M273.98,47.56h-2.25s-8.38-19.21-8.38-19.21l-8.18,19.24-2.32-.02-15.64-35.83h2.83l13.96,31.97,7.87-18.77-5.76-13.2h2.82l13.94,31.95,13.47-31.95h2.81l-15.17,35.83Z"/>
    <path class="st0" d="M296.86,47.56V11.73h27.27v2.43h-24.57v13.53h21.77v2.43h-21.77v15.01h24.84v2.43h-27.53Z"/>
    <path class="st0" d="M356.25,30.07c3.7,1.44,5.55,4.25,5.55,8.4v9.09h-2.7v-8.98c0-4.68-3.28-7.03-9.83-7.03h-14.11v16.01h-2.7V11.73h17.28c8.38,0,12.58,3.14,12.58,9.41,0,4.37-2.03,7.34-6.08,8.93ZM349.86,14.16h-14.69v14.8h13.84c3.03,0,5.46-.57,7.29-1.7,2.22-1.34,3.33-3.34,3.33-5.99,0-4.74-3.26-7.11-9.78-7.11Z"/>
    <g>
      <path class="st0" d="M212.35,50.12c-11.59,0-21.02-9.2-21.02-20.51s9.43-20.51,21.02-20.51,21.02,9.2,21.02,20.51-9.43,20.51-21.02,20.51ZM212.35,11.41c-10.32,0-18.71,8.17-18.71,18.21s8.4,18.21,18.71,18.21,18.71-8.17,18.71-18.21-8.4-18.21-18.71-18.21Z"/>
      <polygon class="st0" points="235.06 31.21 199.83 30.59 199.83 29.81 235.06 29.2 235.06 31.21"/>
    </g>
  </g>
</svg>